<?xml version="1.0" encoding="UTF-8"?>
<!DOCTYPE svg PUBLIC "-//W3C//DTD SVG 1.1//EN" "http://www.w3.org/Graphics/SVG/1.1/DTD/svg11.dtd">
<svg xmlns="http://www.w3.org/2000/svg" version="1.1" width="131px" height="131px" style="shape-rendering:geometricPrecision; text-rendering:geometricPrecision; image-rendering:optimizeQuality; fill-rule:evenodd; clip-rule:evenodd" xmlns:xlink="http://www.w3.org/1999/xlink">
<g><path style="opacity:0.835" fill="#d5d4a8" d="M 104.5,3.5 C 102.744,4.55213 102.077,6.21879 102.5,8.5C 101.539,6.73535 101.205,4.73535 101.5,2.5C 102.791,2.26269 103.791,2.59603 104.5,3.5 Z"/></g>
<g><path style="opacity:1" fill="#fefd26" d="M 104.5,3.5 C 105.609,3.55688 106.609,3.89022 107.5,4.5C 107.5,5.83333 108.167,6.5 109.5,6.5C 119.162,15.8209 125.162,27.1543 127.5,40.5C 127.5,46.8333 127.5,53.1667 127.5,59.5C 126.728,63.4517 126.395,67.4517 126.5,71.5C 125.883,71.6107 125.383,71.944 125,72.5C 123.686,76.7536 122.853,81.087 122.5,85.5C 121.503,85.4701 120.836,85.9701 120.5,87C 118.328,91.5039 116.328,96.0039 114.5,100.5C 112.554,101.035 111.554,102.368 111.5,104.5C 111.5,105.167 111.167,105.5 110.5,105.5C 109.167,105.5 108.5,106.167 108.5,107.5C 108.5,108.833 107.833,109.5 106.5,109.5C 105.5,109.833 104.833,110.5 104.5,111.5C 101.875,114.815 98.5416,117.149 94.5,118.5C 92.847,118.66 91.5137,119.326 90.5,120.5C 72.5841,128.547 54.5841,128.381 36.5,120C 35.4293,119.148 34.4293,118.315 33.5,117.5C 33.0269,116.094 32.0269,115.427 30.5,115.5C 22.1139,110.781 15.7806,104.114 11.5,95.5C 11.7148,93.8212 11.0481,92.8212 9.5,92.5C 5.7007,85.7532 3.7007,78.4199 3.5,70.5C 4.25154,67.2527 4.75154,63.9194 5,60.5C 5.38258,61.056 5.88258,61.3893 6.5,61.5C 6.179,64.5769 7.179,66.9103 9.5,68.5C 10.404,69.209 10.7373,70.209 10.5,71.5C 11.2833,76.3995 13.6167,80.3995 17.5,83.5C 19.5,87.5 22.5,90.5 26.5,92.5C 27.2623,94.2624 28.5956,95.2624 30.5,95.5C 30.8333,95.5 31.1667,95.5 31.5,95.5C 31.8212,97.0481 32.8212,97.7148 34.5,97.5C 35.7095,97.9321 36.7095,98.5987 37.5,99.5C 38.7804,100.931 40.4471,101.598 42.5,101.5C 59.5612,106.733 75.8945,105.066 91.5,96.5C 94.9464,95.3882 96.9464,93.0548 97.5,89.5C 99.4192,87.5789 100.419,85.0789 100.5,82C 100.299,79.8886 99.6327,78.0552 98.5,76.5C 96.3902,72.4979 95.0569,68.1646 94.5,63.5C 94.5,57.8333 94.5,52.1667 94.5,46.5C 95.7682,44.0948 96.4349,41.4282 96.5,38.5C 96.9321,37.2905 97.5987,36.2905 98.5,35.5C 102.241,35.5867 104.241,37.5867 104.5,41.5C 103.204,45.6315 103.204,49.6315 104.5,53.5C 102.998,55.8293 103.664,57.1627 106.5,57.5C 107.833,57.1667 109.167,56.8333 110.5,56.5C 112.048,56.1788 112.715,55.1788 112.5,53.5C 112.5,52.8333 112.5,52.1667 112.5,51.5C 112.833,51.5 113.167,51.5 113.5,51.5C 115.591,45.029 115.925,38.3623 114.5,31.5C 114.5,31.1667 114.5,30.8333 114.5,30.5C 114.405,28.2143 113.738,26.2143 112.5,24.5C 112.5,24.1667 112.5,23.8333 112.5,23.5C 112.008,21.1815 111.008,19.1815 109.5,17.5C 109.167,17.5 108.833,17.5 108.5,17.5C 106.735,14.2911 104.735,11.2911 102.5,8.5C 102.077,6.21879 102.744,4.55213 104.5,3.5 Z"/></g>
<g><path style="opacity:1" fill="#e2e0b2" d="M 107.5,4.5 C 108.5,4.83333 109.167,5.5 109.5,6.5C 108.167,6.5 107.5,5.83333 107.5,4.5 Z"/></g>
<g><path style="opacity:0.376" fill="#dddbaf" d="M 109.5,6.5 C 120.975,14.7681 127.309,26.1014 128.5,40.5C 128.167,40.5 127.833,40.5 127.5,40.5C 125.162,27.1543 119.162,15.8209 109.5,6.5 Z"/></g>
<g><path style="opacity:1" fill="#f8f8f5" d="M 49.5,12.5 C 66.5273,11.3493 79.8607,17.6827 89.5,31.5C 89.1667,31.8333 88.8333,32.1667 88.5,32.5C 71.6973,20.3874 55.0306,20.5541 38.5,33C 24.7701,48.1438 22.9367,64.6438 33,82.5C 36.3483,86.8471 40.3483,90.5137 45,93.5C 45.6877,94.3317 45.521,94.9984 44.5,95.5C 20.5821,87.3381 10.0821,70.6714 13,45.5C 18.4486,26.8768 30.6153,15.8768 49.5,12.5 Z"/></g>
<g><path style="opacity:0.718" fill="#d7cdab" d="M 100.5,13.5 C 98.744,14.5521 98.0773,16.2188 98.5,18.5C 97.5386,16.7354 97.2053,14.7354 97.5,12.5C 98.791,12.2627 99.791,12.596 100.5,13.5 Z"/></g>
<g><path style="opacity:1" fill="#f9f64b" d="M 100.5,13.5 C 101.492,13.3284 102.158,13.6618 102.5,14.5C 102.973,15.9063 103.973,16.573 105.5,16.5C 108.299,18.6233 110.299,21.2899 111.5,24.5C 111.833,26.5 112.167,28.5 112.5,30.5C 112.5,36.1667 112.5,41.8333 112.5,47.5C 111.684,46.8429 111.017,45.5095 110.5,43.5C 108.885,33.94 104.885,25.6067 98.5,18.5C 98.0773,16.2188 98.744,14.5521 100.5,13.5 Z"/></g>
<g><path style="opacity:0.376" fill="#dbdabf" d="M 102.5,14.5 C 104.027,14.427 105.027,15.0937 105.5,16.5C 103.973,16.573 102.973,15.9063 102.5,14.5 Z"/></g>
<g><path style="opacity:0.5" fill="#d0cfc1" d="M 105.5,16.5 C 106.609,16.5569 107.609,16.8902 108.5,17.5C 108.833,18.8333 109.167,18.8333 109.5,17.5C 111.008,19.1815 112.008,21.1815 112.5,23.5C 111.833,23.5 111.5,23.8333 111.5,24.5C 110.299,21.2899 108.299,18.6233 105.5,16.5 Z"/></g>
<g><path style="opacity:0.541" fill="#c8c8c2" d="M 111.5,24.5 C 111.833,24.5 112.167,24.5 112.5,24.5C 113.738,26.2143 114.405,28.2143 114.5,30.5C 113.833,30.5 113.167,30.5 112.5,30.5C 112.167,28.5 111.833,26.5 111.5,24.5 Z"/></g>
<g><path style="opacity:0.487" fill="#c9c8c4" d="M 114.5,31.5 C 115.925,38.3623 115.591,45.029 113.5,51.5C 113.167,50.1667 112.833,50.1667 112.5,51.5C 110.631,49.3647 109.964,46.6981 110.5,43.5C 111.017,45.5095 111.684,46.8429 112.5,47.5C 113.167,42.1667 113.833,36.8333 114.5,31.5 Z"/></g>
<g><path style="opacity:0.376" fill="#d5d2b9" d="M 98.5,35.5 C 100.223,34.193 102.057,34.193 104,35.5C 104.5,37.5 105,39.5 105.5,41.5C 104.638,45.4526 104.305,49.4526 104.5,53.5C 103.204,49.6315 103.204,45.6315 104.5,41.5C 104.241,37.5867 102.241,35.5867 98.5,35.5 Z"/></g>
<g><path style="opacity:1" fill="#d7d393" d="M 96.5,38.5 C 96.4349,41.4282 95.7682,44.0948 94.5,46.5C 94.2938,43.5049 94.9605,40.8383 96.5,38.5 Z"/></g>
<g><path style="opacity:1" fill="#fefd27" d="M 58.5,44.5 C 58.9731,45.9063 59.9731,46.573 61.5,46.5C 62.0981,49.8211 63.7647,50.8211 66.5,49.5C 68.5,49.5 69.5,48.5 69.5,46.5C 71.0269,46.573 72.0269,45.9063 72.5,44.5C 76.5,43.1667 80.5,43.1667 84.5,44.5C 84.9731,45.9063 85.9731,46.573 87.5,46.5C 87.8333,46.5 88.1667,46.5 88.5,46.5C 88.0882,48.9726 89.0882,50.3059 91.5,50.5C 91.9057,56.425 91.239,62.425 89.5,68.5C 88.1667,68.5 87.5,69.1667 87.5,70.5C 86.0755,72.0311 85.4088,71.6977 85.5,69.5C 87.6867,58.1855 83.02,53.0188 71.5,54C 69.0243,55.3088 67.0243,57.1421 65.5,59.5C 60.5491,53.1011 54.5491,51.9344 47.5,56C 43.2338,60.1294 42.5672,64.6294 45.5,69.5C 45.5,70.8333 44.8333,71.5 43.5,71.5C 43.7148,69.8212 43.0481,68.8212 41.5,68.5C 40.0687,67.2196 39.4021,65.5529 39.5,63.5C 39.4372,58.7971 39.7705,54.1304 40.5,49.5C 40.8333,48.5 41.5,47.8333 42.5,47.5C 44.4044,47.2624 45.7377,46.2624 46.5,44.5C 50.5,43.1667 54.5,43.1667 58.5,44.5 Z"/></g>
<g><path style="opacity:0.376" fill="#dbdac5" d="M 58.5,44.5 C 60.0269,44.427 61.0269,45.0937 61.5,46.5C 59.9731,46.573 58.9731,45.9063 58.5,44.5 Z"/></g>
<g><path style="opacity:0.376" fill="#dbdac1" d="M 84.5,44.5 C 86.0269,44.427 87.0269,45.0937 87.5,46.5C 85.9731,46.573 84.9731,45.9063 84.5,44.5 Z"/></g>
<g><path style="opacity:1" fill="#fefa9c" d="M 112.5,30.5 C 113.167,30.5 113.833,30.5 114.5,30.5C 114.5,30.8333 114.5,31.1667 114.5,31.5C 113.833,36.8333 113.167,42.1667 112.5,47.5C 112.5,41.8333 112.5,36.1667 112.5,30.5 Z"/></g>
<g><path style="opacity:1" fill="#eeea98" d="M 46.5,44.5 C 45.7377,46.2624 44.4044,47.2624 42.5,47.5C 43.2623,45.7376 44.5956,44.7376 46.5,44.5 Z"/></g>
<g><path style="opacity:1" fill="#eeeaa8" d="M 72.5,44.5 C 72.0269,45.9063 71.0269,46.573 69.5,46.5C 69.9731,45.0937 70.9731,44.427 72.5,44.5 Z"/></g>
<g><path style="opacity:1" fill="#e1dda1" d="M 61.5,46.5 C 62.922,47.925 64.5887,48.925 66.5,49.5C 63.7647,50.8211 62.0981,49.8211 61.5,46.5 Z"/></g>
<g><path style="opacity:1" fill="#ede9ab" d="M 127.5,40.5 C 127.833,40.5 128.167,40.5 128.5,40.5C 129.833,46.8333 129.833,53.1667 128.5,59.5C 128.167,59.5 127.833,59.5 127.5,59.5C 127.5,53.1667 127.5,46.8333 127.5,40.5 Z"/></g>
<g><path style="opacity:1" fill="#eae08a" d="M 69.5,46.5 C 69.5,48.5 68.5,49.5 66.5,49.5C 67.1667,48.1667 68.1667,47.1667 69.5,46.5 Z"/></g>
<g><path style="opacity:0.376" fill="#e2dfaf" d="M 88.5,46.5 C 89.9744,47.4363 90.9744,48.7697 91.5,50.5C 89.0882,50.3059 88.0882,48.9726 88.5,46.5 Z"/></g>
<g><path style="opacity:0.438" fill="#cdcdc8" d="M 6.5,57.5 C 5.88258,57.3893 5.38258,57.056 5,56.5C 4.72158,57.4158 4.22158,58.0825 3.5,58.5C 3.05078,56.0225 3.71745,54.0225 5.5,52.5C 6.45189,54.0453 6.78522,55.712 6.5,57.5 Z"/></g>
<g><path style="opacity:1" fill="#fdfdfa" d="M 85.5,69.5 C 82.4145,72.6061 80.0812,76.2728 78.5,80.5C 75.0914,85.2405 70.7581,88.9072 65.5,91.5C 58.8262,87.4839 53.1595,82.4839 48.5,76.5C 49.0431,76.44 49.3764,76.1067 49.5,75.5C 48.1433,73.4346 46.81,71.4346 45.5,69.5C 42.5672,64.6294 43.2338,60.1294 47.5,56C 54.5491,51.9344 60.5491,53.1011 65.5,59.5C 67.0243,57.1421 69.0243,55.3088 71.5,54C 83.02,53.0188 87.6867,58.1855 85.5,69.5 Z"/></g>
<g><path style="opacity:1" fill="#edebad" d="M 91.5,50.5 C 92.404,51.209 92.7373,52.209 92.5,53.5C 92.5,56.1667 92.5,58.8333 92.5,61.5C 92.2927,64.2406 91.2927,66.5739 89.5,68.5C 91.239,62.425 91.9057,56.425 91.5,50.5 Z"/></g>
<g><path style="opacity:1" fill="#e5e17e" d="M 40.5,49.5 C 39.7705,54.1304 39.4372,58.7971 39.5,63.5C 36.7477,58.6588 37.081,53.9921 40.5,49.5 Z"/></g>
<g><path style="opacity:0.624" fill="#c4c3ac" d="M 94.5,46.5 C 94.5,52.1667 94.5,57.8333 94.5,63.5C 93.8333,62.8333 93.1667,62.1667 92.5,61.5C 92.5,58.8333 92.5,56.1667 92.5,53.5C 93.1667,51.1667 93.8333,48.8333 94.5,46.5 Z"/></g>
<g><path style="opacity:0.376" fill="#dddcb9" d="M 104.5,53.5 C 105.345,54.6715 106.011,56.0048 106.5,57.5C 103.664,57.1627 102.998,55.8293 104.5,53.5 Z"/></g>
<g><path style="opacity:1" fill="#e2df91" d="M 112.5,53.5 C 112.715,55.1788 112.048,56.1788 110.5,56.5C 110.932,55.2905 111.599,54.2905 112.5,53.5 Z"/></g>
<g><path style="opacity:0.376" fill="#d9d5b7" d="M 6.5,57.5 C 7.63215,61.019 8.63215,64.6857 9.5,68.5C 7.179,66.9103 6.179,64.5769 6.5,61.5C 6.5,60.1667 6.5,58.8333 6.5,57.5 Z"/></g>
<g><path style="opacity:0.376" fill="#cccbad" d="M 127.5,59.5 C 127.833,59.5 128.167,59.5 128.5,59.5C 128.283,63.7051 127.617,67.7051 126.5,71.5C 126.395,67.4517 126.728,63.4517 127.5,59.5 Z"/></g>
<g><path style="opacity:1" fill="#f3e57d" d="M 6.5,57.5 C 6.5,58.8333 6.5,60.1667 6.5,61.5C 5.88258,61.3893 5.38258,61.056 5,60.5C 4.75154,63.9194 4.25154,67.2527 3.5,70.5C 2.20916,66.6011 2.20916,62.6011 3.5,58.5C 4.22158,58.0825 4.72158,57.4158 5,56.5C 5.38258,57.056 5.88258,57.3893 6.5,57.5 Z"/></g>
<g><path style="opacity:0.376" fill="#d2d1b3" d="M 89.5,68.5 C 89.1667,69.5 88.5,70.1667 87.5,70.5C 87.5,69.1667 88.1667,68.5 89.5,68.5 Z"/></g>
<g><path style="opacity:0.431" fill="#dbd8ae" d="M 41.5,68.5 C 43.0481,68.8212 43.7148,69.8212 43.5,71.5C 42.5987,70.7095 41.9321,69.7095 41.5,68.5 Z"/></g>
<g><path style="opacity:1" fill="#f6f398" d="M 45.5,69.5 C 46.81,71.4346 48.1433,73.4346 49.5,75.5C 49.3764,76.1067 49.0431,76.44 48.5,76.5C 46.1667,75.5 44.5,73.8333 43.5,71.5C 44.8333,71.5 45.5,70.8333 45.5,69.5 Z"/></g>
<g><path style="opacity:0.376" fill="#dbd9a9" d="M 10.5,71.5 C 12.83,75.4921 15.1633,79.4921 17.5,83.5C 13.6167,80.3995 11.2833,76.3995 10.5,71.5 Z"/></g>
<g><path style="opacity:1" fill="#f5f0b4" d="M 85.5,69.5 C 85.4088,71.6977 86.0755,72.0311 87.5,70.5C 86.2498,72.9324 84.7498,75.2657 83,77.5C 81.871,79.1412 80.371,80.1412 78.5,80.5C 80.0812,76.2728 82.4145,72.6061 85.5,69.5 Z"/></g>
<g><path style="opacity:0.376" fill="#d4d2b4" d="M 126.5,71.5 C 125.741,76.4305 124.408,81.0971 122.5,85.5C 122.853,81.087 123.686,76.7536 125,72.5C 125.383,71.944 125.883,71.6107 126.5,71.5 Z"/></g>
<g><path style="opacity:0.624" fill="#d6ce8e" d="M 98.5,76.5 C 99.6327,78.0552 100.299,79.8886 100.5,82C 100.419,85.0789 99.4192,87.5789 97.5,89.5C 99.3711,85.2472 99.7045,80.9138 98.5,76.5 Z"/></g>
<g><path style="opacity:1" fill="#e2e0b1" d="M 17.5,83.5 C 20.8333,86.1667 23.8333,89.1667 26.5,92.5C 22.5,90.5 19.5,87.5 17.5,83.5 Z"/></g>
<g><path style="opacity:0.376" fill="#d4d3ad" d="M 122.5,85.5 C 120.593,90.9843 117.927,95.9843 114.5,100.5C 116.328,96.0039 118.328,91.5039 120.5,87C 120.836,85.9701 121.503,85.4701 122.5,85.5 Z"/></g>
<g><path style="opacity:1" fill="#deda8b" d="M 9.5,92.5 C 11.0481,92.8212 11.7148,93.8212 11.5,95.5C 10.5987,94.7095 9.93205,93.7095 9.5,92.5 Z"/></g>
<g><path style="opacity:0.376" fill="#dedcb5" d="M 26.5,92.5 C 28.4044,92.7376 29.7377,93.7376 30.5,95.5C 28.5956,95.2624 27.2623,94.2624 26.5,92.5 Z"/></g>
<g><path style="opacity:1" fill="#ebe78b" d="M 97.5,89.5 C 96.9464,93.0548 94.9464,95.3882 91.5,96.5C 93.5293,94.1415 95.5293,91.8082 97.5,89.5 Z"/></g>
<g><path style="opacity:0.376" fill="#deddc8" d="M 31.5,95.5 C 32.7095,95.9321 33.7095,96.5987 34.5,97.5C 32.8212,97.7148 31.8212,97.0481 31.5,95.5 Z"/></g>
<g><path style="opacity:0.847" fill="#f1efd5" d="M 37.5,99.5 C 39.5529,99.4021 41.2196,100.069 42.5,101.5C 40.4471,101.598 38.7804,100.931 37.5,99.5 Z"/></g>
<g><path style="opacity:0.329" fill="#d5d3b9" d="M 114.5,100.5 C 113.974,102.23 112.974,103.564 111.5,104.5C 111.554,102.368 112.554,101.035 114.5,100.5 Z"/></g>
<g><path style="opacity:0.376" fill="#d2d1b1" d="M 110.5,105.5 C 110.167,106.5 109.5,107.167 108.5,107.5C 108.5,106.167 109.167,105.5 110.5,105.5 Z"/></g>
<g><path style="opacity:0.047" fill="#e5dccd" d="M 106.5,109.5 C 106.5,110.833 105.833,111.5 104.5,111.5C 104.833,110.5 105.5,109.833 106.5,109.5 Z"/></g>
<g><path style="opacity:1" fill="#eceaa5" d="M 30.5,115.5 C 32.0269,115.427 33.0269,116.094 33.5,117.5C 31.9731,117.573 30.9731,116.906 30.5,115.5 Z"/></g>
<g><path style="opacity:0.165" fill="#eceab8" d="M 94.5,118.5 C 93.713,120.104 92.3797,120.771 90.5,120.5C 91.5137,119.326 92.847,118.66 94.5,118.5 Z"/></g>
</svg>
